<?xml version="1.0" encoding="UTF-8" standalone="no"?>
<!-- Created with Inkscape (http://www.inkscape.org/) -->

<svg
   version="1.1"
   id="svg32"
   width="560.3877"
   height="560.3877"
   viewBox="0 0 560.3877 560.3877"
   sodipodi:docname="image.png"
   inkscape:export-filename="../Pictures/minimalbnb.svg"
   inkscape:export-xdpi="96"
   inkscape:export-ydpi="96"
   xmlns:inkscape="http://www.inkscape.org/namespaces/inkscape"
   xmlns:sodipodi="http://sodipodi.sourceforge.net/DTD/sodipodi-0.dtd"
   xmlns="http://www.w3.org/2000/svg"
   xmlns:svg="http://www.w3.org/2000/svg">
  <defs
     id="defs36" />
  <sodipodi:namedview
     id="namedview34"
     pagecolor="#191919"
     bordercolor="#000000"
     borderopacity="0.25"
     inkscape:showpageshadow="2"
     inkscape:pageopacity="0"
     inkscape:pagecheckerboard="true"
     inkscape:deskcolor="#191919"
     showgrid="false"
     inkscape:zoom="0.89238518"
     inkscape:cx="276.78631"
     inkscape:cy="280.14809"
     inkscape:window-width="1920"
     inkscape:window-height="1029"
     inkscape:window-x="1920"
     inkscape:window-y="0"
     inkscape:window-maximized="1"
     inkscape:current-layer="g38" />
  <g
     inkscape:groupmode="layer"
     inkscape:label="Image"
     id="g38"
     transform="translate(-17.306183,-21.306183)">
    <circle
       style="fill:#503736;fill-opacity:1;stroke:#d7d9c6;stroke-width:10;stroke-linecap:round;stroke-linejoin:round;stroke-dasharray:none;stroke-opacity:1"
       id="circle1202"
       cx="297.5"
       cy="301.5"
       r="275.19382" />
    <path
       id="path1197"
       style="fill:none;stroke:#d7d9c6;stroke-width:10;stroke-linecap:round;stroke-linejoin:round"
       d="M 339.84059,158.3455 A 42.340591,42.340591 0 0 1 297.5,200.6861 42.340591,42.340591 0 0 1 255.15941,158.3455 42.340591,42.340591 0 0 1 297.5,116.00491 42.340591,42.340591 0 0 1 339.84059,158.3455 Z M 214.3047,86.88542 h 20.87367 m 144.63229,99.94704 h 49.52217 m -243.75179,69.16713 h 28.20417 m 135.61838,60.82973 h 26.23999 M 219.89876,432.02424 h 153.63161 m -153.63161,-34 h 153.63161 m -153.63161,-18 H 373.53037 M 357.71456,471.4981 V 366.74822 m -122,104.74988 V 366.74822 m 286.33033,-63.37229 c -19.21818,50.99938 -51.26994,83.50589 -51.26994,83.50589 m 58.69326,-159.80457 c -8.05562,26.94999 -27.27341,50.20012 -27.27341,50.20012 m 20.65195,-110.38271 c -2.33777,19.78062 -12.31321,35.41594 -12.31321,35.41594 m 2.55897,-71.84131 c -10.46167,66.6999 -39.04629,98.81877 -39.04629,98.81877 l 38.99504,-9.12048 c -21.32535,54.57154 -60.30337,92.41276 -60.30337,92.41276 l 55.75299,-22.37947 c -35.55411,81.22256 -78.64627,110.71922 -78.64627,110.71922 28.58337,4.95021 118.70153,10.40891 118.70153,10.40891 M 72.955112,303.37593 c 19.218176,50.99938 51.269938,83.50589 51.269938,83.50589 M 65.531787,227.07725 c 8.055622,26.94999 27.273411,50.20012 27.273411,50.20012 M 72.153254,166.89466 c 2.337768,19.78062 12.313205,35.41594 12.313205,35.41594 m -2.558973,-71.84131 c 10.461678,66.6999 39.046294,98.81877 39.046294,98.81877 l -38.995036,-9.12048 c 21.325346,54.57154 60.303366,92.41276 60.303366,92.41276 L 86.509117,290.20087 C 122.06323,371.42343 165.15539,400.92009 165.15539,400.92009 136.57202,405.8703 46.453857,411.329 46.453857,411.329 M 215.7262,542.36078 c 47.82843,-17.54704 116.37845,-19.87354 163.69114,0.66823 M 184.70311,518.14407 c 46.70622,-24.18689 179.58476,-24.59318 224.34021,0 m 98.18335,-74.9819 c -28.74887,-3.26687 -78.36131,22.38614 -78.36131,22.38614 M 85.09363,443.16217 c 28.74887,-3.26687 78.36131,22.38614 78.36131,22.38614 m 56.70731,7.81937 c 0,0 -51.45577,-61.85497 -173.708393,-59.14026 m 328.383893,59.14026 c 0,0 51.45577,-61.85497 173.70839,-59.14026 m -430.29919,96.07867 c 52.00274,-51.29519 280.00669,-61.71232 358.72511,-0.18822 M 572.69382,301.5 A 275.19382,275.19382 0 0 1 297.5,576.69382 275.19382,275.19382 0 0 1 22.306183,301.5 275.19382,275.19382 0 0 1 297.5,26.306183 275.19382,275.19382 0 0 1 572.69382,301.5 Z"
       inkscape:export-filename="../Pictures/path1197.svg"
       inkscape:export-xdpi="96"
       inkscape:export-ydpi="96" />
  </g>
</svg>
